<svg width="232" height="29" viewBox="0 0 232 29" fill="none" xmlns="http://www.w3.org/2000/svg">
<g filter="url(#filter0_b_4_3)">
<path d="M4.13086 12.5664L13.4473 15.9355V19.9053L0.791016 14.5439V11.7314L4.13086 12.5664ZM13.4473 9.8125L4.11621 13.2402L0.791016 14.0312V11.2188L13.4473 5.85742V9.8125ZM31.2158 22H26.5723L26.6016 18.5723H31.2158C32.3682 18.5723 33.3398 18.3135 34.1309 17.7959C34.9219 17.2686 35.5176 16.502 35.918 15.4961C36.3281 14.4902 36.5332 13.2744 36.5332 11.8486V10.8086C36.5332 9.71484 36.416 8.75293 36.1816 7.92285C35.957 7.09277 35.6201 6.39453 35.1709 5.82812C34.7217 5.26172 34.1699 4.83691 33.5156 4.55371C32.8613 4.26074 32.1094 4.11426 31.2598 4.11426H26.4844V0.671875H31.2598C32.6855 0.671875 33.9893 0.916016 35.1709 1.4043C36.3623 1.88281 37.3926 2.57129 38.2617 3.46973C39.1309 4.36816 39.7998 5.44238 40.2686 6.69238C40.7471 7.93262 40.9863 9.31445 40.9863 10.8379V11.8486C40.9863 13.3623 40.7471 14.7441 40.2686 15.9941C39.7998 17.2441 39.1309 18.3184 38.2617 19.2168C37.4023 20.1055 36.3721 20.7939 35.1709 21.2822C33.9795 21.7607 32.6611 22 31.2158 22ZM29.0625 0.671875V22H24.668V0.671875H29.0625ZM53.291 18.2061V6.15039H57.5098V22H53.54L53.291 18.2061ZM53.7598 14.9541L55.0049 14.9248C55.0049 15.9795 54.8828 16.9609 54.6387 17.8691C54.3945 18.7676 54.0283 19.5488 53.54 20.2129C53.0518 20.8672 52.4365 21.3799 51.6943 21.751C50.9521 22.1123 50.0781 22.293 49.0723 22.293C48.3008 22.293 47.5879 22.1855 46.9336 21.9707C46.2891 21.7461 45.7324 21.3994 45.2637 20.9307C44.8047 20.4521 44.4434 19.8418 44.1797 19.0996C43.9258 18.3477 43.7988 17.4443 43.7988 16.3896V6.15039H48.0176V16.4189C48.0176 16.8877 48.0713 17.2832 48.1787 17.6055C48.2959 17.9277 48.457 18.1914 48.6621 18.3965C48.8672 18.6016 49.1064 18.748 49.3799 18.8359C49.6631 18.9238 49.9756 18.9678 50.3174 18.9678C51.1865 18.9678 51.8701 18.792 52.3682 18.4404C52.876 18.0889 53.2324 17.6104 53.4375 17.0049C53.6523 16.3896 53.7598 15.7061 53.7598 14.9541ZM69.2871 18.4258V11.3652C69.2871 10.8574 69.2041 10.4229 69.0381 10.0615C68.8721 9.69043 68.6133 9.40234 68.2617 9.19727C67.9199 8.99219 67.4756 8.88965 66.9287 8.88965C66.46 8.88965 66.0547 8.97266 65.7129 9.13867C65.3711 9.29492 65.1074 9.52441 64.9219 9.82715C64.7363 10.1201 64.6436 10.4668 64.6436 10.8672H60.4248C60.4248 10.1934 60.5811 9.55371 60.8936 8.94824C61.2061 8.34277 61.6602 7.81055 62.2559 7.35156C62.8516 6.88281 63.5596 6.5166 64.3799 6.25293C65.21 5.98926 66.1377 5.85742 67.1631 5.85742C68.3936 5.85742 69.4873 6.0625 70.4443 6.47266C71.4014 6.88281 72.1533 7.49805 72.7002 8.31836C73.2568 9.13867 73.5352 10.1641 73.5352 11.3945V18.1768C73.5352 19.0459 73.5889 19.7588 73.6963 20.3154C73.8037 20.8623 73.96 21.3408 74.165 21.751V22H69.9023C69.6973 21.5703 69.541 21.0332 69.4336 20.3887C69.3359 19.7344 69.2871 19.0801 69.2871 18.4258ZM69.8438 12.3467L69.873 14.7344H67.5146C66.958 14.7344 66.4746 14.7979 66.0645 14.9248C65.6543 15.0518 65.3174 15.2324 65.0537 15.4668C64.79 15.6914 64.5947 15.9551 64.4678 16.2578C64.3506 16.5605 64.292 16.8926 64.292 17.2539C64.292 17.6152 64.375 17.9424 64.541 18.2354C64.707 18.5186 64.9463 18.7432 65.2588 18.9092C65.5713 19.0654 65.9375 19.1436 66.3574 19.1436C66.9922 19.1436 67.5439 19.0166 68.0127 18.7627C68.4814 18.5088 68.8428 18.1963 69.0967 17.8252C69.3604 17.4541 69.4971 17.1025 69.5068 16.7705L70.6201 18.5576C70.4639 18.958 70.249 19.373 69.9756 19.8027C69.7119 20.2324 69.375 20.6377 68.9648 21.0186C68.5547 21.3896 68.0615 21.6973 67.4854 21.9414C66.9092 22.1758 66.2256 22.293 65.4346 22.293C64.4287 22.293 63.5156 22.0928 62.6953 21.6924C61.8848 21.2822 61.2402 20.7207 60.7617 20.0078C60.293 19.2852 60.0586 18.4648 60.0586 17.5469C60.0586 16.7168 60.2148 15.9795 60.5273 15.335C60.8398 14.6904 61.2988 14.1484 61.9043 13.709C62.5195 13.2598 63.2861 12.9229 64.2041 12.6982C65.1221 12.4639 66.1865 12.3467 67.3975 12.3467H69.8438ZM80.918 9.53418V22H76.6992V6.15039H80.6543L80.918 9.53418ZM80.3027 13.5186H79.1602C79.1602 12.3467 79.3115 11.292 79.6143 10.3545C79.917 9.40723 80.3418 8.60156 80.8887 7.9375C81.4355 7.26367 82.085 6.75098 82.8369 6.39941C83.5986 6.03809 84.4482 5.85742 85.3857 5.85742C86.1279 5.85742 86.8066 5.96484 87.4219 6.17969C88.0371 6.39453 88.5645 6.73633 89.0039 7.20508C89.4531 7.67383 89.7949 8.29395 90.0293 9.06543C90.2734 9.83691 90.3955 10.7793 90.3955 11.8926V22H86.1475V11.8779C86.1475 11.1748 86.0498 10.6279 85.8545 10.2373C85.6592 9.84668 85.3711 9.57324 84.9902 9.41699C84.6191 9.25098 84.1602 9.16797 83.6133 9.16797C83.0469 9.16797 82.5537 9.28027 82.1338 9.50488C81.7236 9.72949 81.3818 10.042 81.1084 10.4424C80.8447 10.833 80.6445 11.292 80.5078 11.8193C80.3711 12.3467 80.3027 12.9131 80.3027 13.5186ZM98.3057 20.2129L102.51 6.15039H107.036L100.664 24.3877C100.527 24.7881 100.342 25.2178 100.107 25.6768C99.8828 26.1357 99.5752 26.5703 99.1846 26.9805C98.8037 27.4004 98.3203 27.7422 97.7344 28.0059C97.1582 28.2695 96.4502 28.4014 95.6104 28.4014C95.21 28.4014 94.8828 28.377 94.6289 28.3281C94.375 28.2793 94.0723 28.2109 93.7207 28.123V25.0322C93.8281 25.0322 93.9404 25.0322 94.0576 25.0322C94.1748 25.042 94.2871 25.0469 94.3945 25.0469C94.9512 25.0469 95.4053 24.9834 95.7568 24.8564C96.1084 24.7295 96.3916 24.5342 96.6064 24.2705C96.8213 24.0166 96.9922 23.6846 97.1191 23.2744L98.3057 20.2129ZM96.5479 6.15039L99.9902 17.6348L100.591 22.1025L97.7197 22.4102L92.0215 6.15039H96.5479ZM127.559 16.4189C127.559 16.0381 127.5 15.6963 127.383 15.3936C127.275 15.0811 127.07 14.7979 126.768 14.5439C126.465 14.2803 126.04 14.0215 125.493 13.7676C124.946 13.5137 124.238 13.25 123.369 12.9766C122.402 12.6641 121.484 12.3125 120.615 11.9219C119.756 11.5312 118.994 11.0771 118.33 10.5596C117.676 10.0322 117.158 9.42188 116.777 8.72852C116.406 8.03516 116.221 7.22949 116.221 6.31152C116.221 5.42285 116.416 4.61719 116.807 3.89453C117.197 3.16211 117.744 2.53711 118.447 2.01953C119.15 1.49219 119.98 1.08691 120.938 0.803711C121.904 0.520508 122.964 0.378906 124.116 0.378906C125.688 0.378906 127.061 0.662109 128.232 1.22852C129.404 1.79492 130.312 2.57129 130.957 3.55762C131.611 4.54395 131.938 5.67188 131.938 6.94141H127.573C127.573 6.31641 127.441 5.76953 127.178 5.30078C126.924 4.82227 126.533 4.44629 126.006 4.17285C125.488 3.89941 124.834 3.7627 124.043 3.7627C123.281 3.7627 122.646 3.87988 122.139 4.11426C121.631 4.33887 121.25 4.64648 120.996 5.03711C120.742 5.41797 120.615 5.84766 120.615 6.32617C120.615 6.6875 120.703 7.01465 120.879 7.30762C121.064 7.60059 121.338 7.87402 121.699 8.12793C122.061 8.38184 122.505 8.62109 123.032 8.8457C123.56 9.07031 124.17 9.29004 124.863 9.50488C126.025 9.85645 127.046 10.252 127.925 10.6914C128.813 11.1309 129.556 11.624 130.151 12.1709C130.747 12.7178 131.196 13.3379 131.499 14.0312C131.802 14.7246 131.953 15.5107 131.953 16.3896C131.953 17.3174 131.772 18.1475 131.411 18.8799C131.05 19.6123 130.527 20.2324 129.844 20.7402C129.16 21.248 128.345 21.6338 127.397 21.8975C126.45 22.1611 125.391 22.293 124.219 22.293C123.164 22.293 122.124 22.1562 121.099 21.8828C120.073 21.5996 119.141 21.1748 118.301 20.6084C117.471 20.042 116.807 19.3193 116.309 18.4404C115.811 17.5615 115.562 16.5215 115.562 15.3203H119.971C119.971 15.9844 120.073 16.5459 120.278 17.0049C120.483 17.4639 120.771 17.835 121.143 18.1182C121.523 18.4014 121.973 18.6064 122.49 18.7334C123.018 18.8604 123.594 18.9238 124.219 18.9238C124.98 18.9238 125.605 18.8164 126.094 18.6016C126.592 18.3867 126.958 18.0889 127.192 17.708C127.437 17.3271 127.559 16.8975 127.559 16.4189ZM134.004 14.2363V13.9287C134.004 12.7666 134.17 11.6973 134.502 10.7207C134.834 9.73438 135.317 8.87988 135.952 8.15723C136.587 7.43457 137.368 6.87305 138.296 6.47266C139.224 6.0625 140.288 5.85742 141.489 5.85742C142.69 5.85742 143.76 6.0625 144.697 6.47266C145.635 6.87305 146.421 7.43457 147.056 8.15723C147.7 8.87988 148.188 9.73438 148.521 10.7207C148.853 11.6973 149.019 12.7666 149.019 13.9287V14.2363C149.019 15.3887 148.853 16.458 148.521 17.4443C148.188 18.4209 147.7 19.2754 147.056 20.0078C146.421 20.7305 145.64 21.292 144.712 21.6924C143.784 22.0928 142.72 22.293 141.519 22.293C140.317 22.293 139.248 22.0928 138.311 21.6924C137.383 21.292 136.597 20.7305 135.952 20.0078C135.317 19.2754 134.834 18.4209 134.502 17.4443C134.17 16.458 134.004 15.3887 134.004 14.2363ZM138.223 13.9287V14.2363C138.223 14.9004 138.281 15.5205 138.398 16.0967C138.516 16.6729 138.701 17.1807 138.955 17.6201C139.219 18.0498 139.561 18.3867 139.98 18.6309C140.4 18.875 140.913 18.9971 141.519 18.9971C142.104 18.9971 142.607 18.875 143.027 18.6309C143.447 18.3867 143.784 18.0498 144.038 17.6201C144.292 17.1807 144.478 16.6729 144.595 16.0967C144.722 15.5205 144.785 14.9004 144.785 14.2363V13.9287C144.785 13.2842 144.722 12.6787 144.595 12.1123C144.478 11.5361 144.287 11.0283 144.023 10.5889C143.77 10.1396 143.433 9.78809 143.013 9.53418C142.593 9.28027 142.085 9.15332 141.489 9.15332C140.894 9.15332 140.386 9.28027 139.966 9.53418C139.556 9.78809 139.219 10.1396 138.955 10.5889C138.701 11.0283 138.516 11.5361 138.398 12.1123C138.281 12.6787 138.223 13.2842 138.223 13.9287ZM160.986 18.2061V6.15039H165.205V22H161.235L160.986 18.2061ZM161.455 14.9541L162.7 14.9248C162.7 15.9795 162.578 16.9609 162.334 17.8691C162.09 18.7676 161.724 19.5488 161.235 20.2129C160.747 20.8672 160.132 21.3799 159.39 21.751C158.647 22.1123 157.773 22.293 156.768 22.293C155.996 22.293 155.283 22.1855 154.629 21.9707C153.984 21.7461 153.428 21.3994 152.959 20.9307C152.5 20.4521 152.139 19.8418 151.875 19.0996C151.621 18.3477 151.494 17.4443 151.494 16.3896V6.15039H155.713V16.4189C155.713 16.8877 155.767 17.2832 155.874 17.6055C155.991 17.9277 156.152 18.1914 156.357 18.3965C156.562 18.6016 156.802 18.748 157.075 18.8359C157.358 18.9238 157.671 18.9678 158.013 18.9678C158.882 18.9678 159.565 18.792 160.063 18.4404C160.571 18.0889 160.928 17.6104 161.133 17.0049C161.348 16.3896 161.455 15.7061 161.455 14.9541ZM181.04 18.7041V22H168.999V18.7041H181.04ZM180.806 8.58203L170.698 22H167.871V19.4951L177.935 6.15039H180.806V8.58203ZM179.312 6.15039V9.46094H168.105V6.15039H179.312ZM192.246 18.4258V11.3652C192.246 10.8574 192.163 10.4229 191.997 10.0615C191.831 9.69043 191.572 9.40234 191.221 9.19727C190.879 8.99219 190.435 8.88965 189.888 8.88965C189.419 8.88965 189.014 8.97266 188.672 9.13867C188.33 9.29492 188.066 9.52441 187.881 9.82715C187.695 10.1201 187.603 10.4668 187.603 10.8672H183.384C183.384 10.1934 183.54 9.55371 183.853 8.94824C184.165 8.34277 184.619 7.81055 185.215 7.35156C185.811 6.88281 186.519 6.5166 187.339 6.25293C188.169 5.98926 189.097 5.85742 190.122 5.85742C191.353 5.85742 192.446 6.0625 193.403 6.47266C194.36 6.88281 195.112 7.49805 195.659 8.31836C196.216 9.13867 196.494 10.1641 196.494 11.3945V18.1768C196.494 19.0459 196.548 19.7588 196.655 20.3154C196.763 20.8623 196.919 21.3408 197.124 21.751V22H192.861C192.656 21.5703 192.5 21.0332 192.393 20.3887C192.295 19.7344 192.246 19.0801 192.246 18.4258ZM192.803 12.3467L192.832 14.7344H190.474C189.917 14.7344 189.434 14.7979 189.023 14.9248C188.613 15.0518 188.276 15.2324 188.013 15.4668C187.749 15.6914 187.554 15.9551 187.427 16.2578C187.31 16.5605 187.251 16.8926 187.251 17.2539C187.251 17.6152 187.334 17.9424 187.5 18.2354C187.666 18.5186 187.905 18.7432 188.218 18.9092C188.53 19.0654 188.896 19.1436 189.316 19.1436C189.951 19.1436 190.503 19.0166 190.972 18.7627C191.44 18.5088 191.802 18.1963 192.056 17.8252C192.319 17.4541 192.456 17.1025 192.466 16.7705L193.579 18.5576C193.423 18.958 193.208 19.373 192.935 19.8027C192.671 20.2324 192.334 20.6377 191.924 21.0186C191.514 21.3896 191.021 21.6973 190.444 21.9414C189.868 22.1758 189.185 22.293 188.394 22.293C187.388 22.293 186.475 22.0928 185.654 21.6924C184.844 21.2822 184.199 20.7207 183.721 20.0078C183.252 19.2852 183.018 18.4648 183.018 17.5469C183.018 16.7168 183.174 15.9795 183.486 15.335C183.799 14.6904 184.258 14.1484 184.863 13.709C185.479 13.2598 186.245 12.9229 187.163 12.6982C188.081 12.4639 189.146 12.3467 190.356 12.3467H192.803ZM216.328 0.671875L208.506 23.8311H205.371L213.193 0.671875H216.328ZM227.842 13.1523L218.452 9.79785V5.85742L231.211 11.2188V14.0459L227.842 13.1523ZM218.452 15.9648L227.856 12.5371L231.211 11.7314V14.5439L218.452 19.9053V15.9648Z" fill="#2C2C58"/>
</g>
<defs>
<filter id="filter0_b_4_3" x="-3.20898" y="-3.62109" width="238.42" height="36.0225" filterUnits="userSpaceOnUse" color-interpolation-filters="sRGB">
<feFlood flood-opacity="0" result="BackgroundImageFix"/>
<feGaussianBlur in="BackgroundImage" stdDeviation="2"/>
<feComposite in2="SourceAlpha" operator="in" result="effect1_backgroundBlur_4_3"/>
<feBlend mode="normal" in="SourceGraphic" in2="effect1_backgroundBlur_4_3" result="shape"/>
</filter>
</defs>
</svg>
